<svg xmlns="http://www.w3.org/2000/svg" width="1600" height="900" viewBox="0 0 1600 900" role="img" aria-labelledby="title desc">
  <title id="title">SpeechBridge README hero</title>
  <desc id="desc">README hero image for SpeechBridge.</desc>
  <rect width="1600" height="900" fill="#F3EEE7"/>
  <rect x="60" y="60" width="1480" height="780" rx="36" fill="#111418"/>
  <rect x="110" y="110" width="1380" height="680" rx="28" fill="none" stroke="#2C3138" stroke-width="2"/>
  <path d="M800 110V790" stroke="#2C3138" stroke-width="2"/>
  <g transform="translate(170 188)">
    <text x="0" y="0" fill="#88919B" font-family="Avenir Next, Helvetica Neue, Arial, sans-serif" font-size="24" font-weight="600" letter-spacing="2.2">SOURCE</text>
    <text x="0" y="82" fill="#F3EEE7" font-family="Avenir Next, Helvetica Neue, Arial, sans-serif" font-size="42" font-weight="500">Live speech enters in one language.</text>
    <rect x="0" y="146" width="510" height="18" rx="9" fill="#2C3138"/>
    <rect x="0" y="194" width="456" height="18" rx="9" fill="#2C3138"/>
    <rect x="0" y="242" width="484" height="18" rx="9" fill="#2C3138"/>
    <rect x="0" y="290" width="392" height="18" rx="9" fill="#2C3138"/>
    <rect x="0" y="420" width="556" height="220" rx="28" fill="#15191E" stroke="#2C3138" stroke-width="2"/>
    <path d="M138 560C180 470 229 424 272 424C315 424 364 470 406 560" fill="none" stroke="#F3EEE7" stroke-width="36" stroke-linecap="round"/>
    <path d="M138 620V522" stroke="#F3EEE7" stroke-width="36" stroke-linecap="round"/>
    <path d="M406 620V522" stroke="#F3EEE7" stroke-width="36" stroke-linecap="round"/>
    <path d="M272 506V620" stroke="#C46A38" stroke-width="28" stroke-linecap="round"/>
  </g>
  <g transform="translate(904 190)">
    <text x="0" y="0" fill="#88919B" font-family="Avenir Next, Helvetica Neue, Arial, sans-serif" font-size="24" font-weight="600" letter-spacing="2.2">TARGET</text>
    <text x="0" y="84" fill="#F3EEE7" font-family="Avenir Next, Helvetica Neue, Arial, sans-serif" font-size="72" font-weight="600" letter-spacing="-2">SpeechBridge</text>
    <text x="0" y="142" fill="#C46A38" font-family="Avenir Next, Helvetica Neue, Arial, sans-serif" font-size="28" font-weight="600" letter-spacing="3">LIVE SPEECH TRANSLATION</text>
    <text x="0" y="244" fill="#F3EEE7" font-family="Avenir Next, Helvetica Neue, Arial, sans-serif" font-size="38" font-weight="500">A professional translation surface</text>
    <text x="0" y="294" fill="#F3EEE7" font-family="Avenir Next, Helvetica Neue, Arial, sans-serif" font-size="38" font-weight="500">for multilingual work that cannot</text>
    <text x="0" y="344" fill="#F3EEE7" font-family="Avenir Next, Helvetica Neue, Arial, sans-serif" font-size="38" font-weight="500">afford friction.</text>
    <rect x="0" y="432" width="402" height="1" fill="#2C3138"/>
    <text x="0" y="498" fill="#88919B" font-family="Avenir Next, Helvetica Neue, Arial, sans-serif" font-size="24" font-weight="500" letter-spacing="1.4">MEETINGS  /  INTERVIEWS  /  RESEARCH  /  FIELD OPS</text>
  </g>
</svg>
